<svg width="407" height="200" viewBox="0 0 407 200" fill="none" xmlns="http://www.w3.org/2000/svg">
<g clip-path="url(#clip0_328_5456)">
<path d="M48.9847 165.167C50.2189 162.904 51.0417 160.847 51.4531 159.202C51.8645 157.556 52.893 154.676 54.1271 150.768C57.8297 138.015 60.9151 126.907 62.9721 117.445C65.029 107.983 67.4974 95.436 70.3771 80.0088C71.1999 75.4835 70.3771 72.1923 68.1145 69.9297H112.545C110.282 72.1923 109.459 75.4835 110.282 80.0088C113.162 95.436 115.63 107.778 117.687 117.445C119.744 126.907 122.83 138.015 126.532 150.768C127.766 154.676 128.589 157.35 129.206 159.202C129.823 161.053 130.646 162.904 131.674 165.167C132.909 167.429 134.143 169.075 135.377 170.309H93.8264C96.2948 167.635 97.5289 163.933 97.5289 159.407C97.5289 155.499 96.5005 147.271 94.2378 134.724H79.4277C80.8676 138.426 82.1018 141.306 82.9245 143.363C83.7473 145.42 84.3644 148.094 85.1872 151.179C86.01 154.265 86.4214 157.145 86.4214 159.819C86.4214 162.698 85.8043 165.167 84.7758 167.224C83.7473 169.281 81.6904 170.309 79.0163 170.309H45.2822C46.5164 169.075 47.7506 167.429 48.9847 165.167ZM93.2093 130.199C88.0669 103.252 83.1302 89.6765 78.1935 89.6765C73.6682 89.6765 71.1999 94.8189 71.1999 105.104C71.1999 111.686 73.2568 119.914 77.3708 129.993H93.2093V130.199Z" fill="#549FC9"/>
<path d="M139.491 109.835C141.342 106.955 144.016 104.692 147.102 103.047C150.393 101.401 153.684 100.373 157.387 99.55C161.089 98.7272 164.792 98.5215 168.906 98.5215C177.545 98.5215 184.95 99.7557 191.532 102.224C198.114 104.692 201.2 107.572 201.2 110.452C201.2 113.743 200.171 116.623 197.909 119.708C195.852 122.588 193.795 124.028 191.738 124.028C188.858 124.028 185.773 122.999 182.276 120.942C178.779 118.885 176.105 116.623 173.637 114.154C171.168 111.686 168.288 109.423 165.203 107.366C162.118 105.309 159.032 104.281 156.152 104.281C154.095 104.281 152.244 104.898 150.599 106.132C148.953 107.366 148.13 109.012 148.13 111.275C148.13 113.537 149.364 115.389 152.039 116.623C154.713 117.857 158.415 118.885 163.352 119.708C167.466 120.531 171.168 121.148 174.048 121.971C177.133 122.794 180.425 123.822 183.921 125.262C187.624 126.702 190.504 128.347 192.766 130.199C195.029 132.05 196.88 134.518 198.526 137.398C200.171 140.278 200.788 143.569 200.788 147.477C200.788 151.797 199.76 155.705 197.703 158.996C195.646 162.287 192.972 164.756 189.887 166.607C186.801 168.252 183.51 169.692 180.219 170.515C176.928 171.338 173.842 171.749 170.757 171.749C163.352 171.749 155.741 170.926 148.336 169.075C140.931 167.224 137.023 165.167 137.023 162.699C137.023 160.23 138.257 156.322 140.52 151.385C142.782 146.449 144.839 143.98 146.69 143.98C147.925 143.98 149.776 144.597 152.039 146.037C154.301 147.477 156.77 148.917 159.238 150.562C161.706 152.208 164.997 153.648 168.906 155.088C172.814 156.528 176.928 157.145 181.042 157.145C184.744 157.145 187.83 156.322 190.709 154.471C193.589 152.619 195.029 150.563 195.029 147.888C195.029 145.832 193.589 144.803 190.915 144.803C189.887 144.803 187.624 145.009 183.716 145.42C180.219 145.831 176.928 146.037 174.048 146.037C170.551 146.037 167.26 145.831 163.969 145.214C160.678 144.597 157.387 143.775 153.89 142.54C150.599 141.306 147.719 139.661 145.045 137.809C142.577 135.958 140.52 133.49 138.874 130.404C137.228 127.319 136.611 124.028 136.611 120.12C136.817 116.006 137.64 112.714 139.491 109.835Z" fill="#549FC9"/>
<path d="M205.108 135.752C205.314 125.673 208.811 117.033 216.216 109.834C223.621 102.429 232.26 98.7266 242.339 98.7266C252.007 98.7266 260.44 102.223 267.228 109.011C274.222 116.005 277.513 124.644 277.307 134.518C277.102 144.597 273.399 153.236 266.406 160.435C259 167.84 250.361 171.543 240.282 171.543C230.614 171.543 222.181 168.046 215.393 161.258C208.399 154.264 204.902 145.625 205.108 135.752ZM229.38 114.359C227.94 120.942 227.94 128.552 229.38 137.192C230.614 145.831 233.083 153.03 236.168 158.79C239.459 164.549 242.751 167.223 245.836 166.606C249.127 165.989 251.39 162.492 252.624 156.116C253.858 149.739 254.064 142.128 252.624 133.283C251.39 124.644 249.127 117.445 245.836 111.685C242.545 105.926 239.254 103.252 236.168 103.869C233.083 104.486 230.82 107.983 229.38 114.359Z" fill="#549FC9"/>
<path d="M282.244 135.752C282.45 125.673 285.947 117.033 293.352 109.834C300.757 102.429 309.396 98.7266 319.475 98.7266C329.143 98.7266 337.576 102.223 344.364 109.011C351.358 116.005 354.649 124.644 354.443 134.518C354.238 144.597 350.535 153.236 343.541 160.435C336.136 167.84 327.497 171.543 317.418 171.543C307.75 171.543 299.317 168.046 292.529 161.258C285.535 154.264 282.244 145.625 282.244 135.752ZM306.516 114.359C305.076 120.942 305.076 128.552 306.516 137.192C307.75 145.831 310.219 153.03 313.304 158.79C316.595 164.549 319.886 167.223 322.972 166.606C326.263 165.989 328.526 162.492 329.76 156.116C330.994 149.739 331.2 142.128 329.76 133.283C328.526 124.644 326.263 117.445 322.972 111.685C319.681 105.926 316.39 103.252 313.304 103.869C310.219 104.486 307.956 107.983 306.516 114.359Z" fill="#549FC9"/>
<path d="M355.883 80.8314C355.883 80.42 356.294 80.0086 356.911 79.5972C371.927 72.3978 381.183 68.6953 385.092 68.6953C386.12 68.6953 386.737 68.901 387.149 69.3124C387.56 69.7238 387.971 70.1352 387.971 70.5466C387.971 70.958 387.971 71.5751 387.971 72.3978V158.379C387.971 163.932 389.206 167.841 391.468 170.103H366.99C364.933 170.103 363.494 169.486 362.671 168.046C361.848 166.606 361.437 164.549 361.437 161.875V89.882V89.4706V88.6478C361.437 88.4421 361.437 88.0307 361.437 87.6193C361.437 87.2079 361.437 86.7965 361.231 86.5908C361.025 86.3851 361.025 85.9737 361.025 85.5624C360.82 85.151 360.614 84.7396 360.408 84.5339C360.202 84.3282 359.997 83.9168 359.585 83.7111C359.38 83.5054 358.968 83.094 358.557 82.8883C358.145 82.6826 357.734 82.4769 357.117 82.2712C356.5 81.8598 355.883 81.4484 355.883 80.8314Z" fill="#549FC9"/>
<mask id="mask0_328_5456" style="mask-type:luminance" maskUnits="userSpaceOnUse" x="-15" y="0" width="155" height="116">
<path d="M115.059 0.00797701L-14.3516 72.0146L9.65066 115.152L139.061 43.1448L115.059 0.00797701Z" fill="white"/>
</mask>
<g mask="url(#mask0_328_5456)">
<mask id="mask1_328_5456" style="mask-type:luminance" maskUnits="userSpaceOnUse" x="-15" y="-1" width="211" height="218">
<path d="M115.051 -0.106281L-14.3594 71.9004L65.9481 216.229L195.359 144.222L115.051 -0.106281Z" fill="white"/>
</mask>
<g mask="url(#mask1_328_5456)">
<path d="M99.7887 31.6696C99.583 38.2519 92.7951 49.1538 74.2824 61.0841C74.8995 50.5936 77.5736 34.5494 88.4755 28.3785C92.7951 25.9102 96.0862 26.3215 97.7318 27.1443C99.1716 28.1728 99.7887 29.6127 99.7887 31.6696ZM27.7952 79.391C20.3902 79.5967 16.4819 77.5398 15.2478 75.2771C13.8079 72.6031 16.0706 68.6949 20.5959 66.2265C31.7034 60.0556 46.7192 66.2265 55.9755 71.1632C42.6053 77.5398 33.5547 79.1853 27.7952 79.391ZM103.697 17.4766C97.9375 13.9798 90.3267 14.3912 82.9217 18.5051C66.466 27.7614 63.1749 49.3595 62.5578 61.9069C51.4502 55.5303 31.4977 47.0968 15.0421 56.3531C4.55159 62.1126 0.437679 72.6031 5.16868 81.2423C13.6022 96.4638 36.2287 96.6695 70.5799 77.5398C104.931 58.4101 116.039 35.5779 109.251 23.4418C108.017 20.9735 106.165 18.9165 103.697 17.4766Z" fill="#E32B28"/>
</g>
</g>
<path d="M148.542 199.929C147.308 199.929 146.28 199.723 145.457 199.106C144.634 198.489 143.811 197.872 143.4 196.844C142.989 195.815 142.577 194.787 142.577 193.347C142.577 191.907 142.783 190.879 143.4 189.85C144.017 188.822 144.634 188.205 145.457 187.587C146.28 186.97 147.308 186.765 148.542 186.765C149.571 186.765 150.394 186.97 151.011 187.382C151.833 187.793 152.451 188.205 152.862 188.822C153.273 189.439 153.685 190.261 153.89 191.084H151.628C151.422 190.467 151.011 189.85 150.599 189.439C149.982 189.027 149.365 188.822 148.748 188.822C148.131 188.822 147.514 189.027 146.897 189.439C146.28 189.85 145.868 190.261 145.663 191.084C145.457 191.907 145.251 192.524 145.251 193.553C145.251 194.992 145.663 196.227 146.28 196.844C146.897 197.667 147.925 198.078 148.954 198.078C149.982 198.078 150.599 197.872 151.216 197.255C151.833 196.638 152.039 196.021 152.039 194.992H149.159V193.141H154.302V194.787C154.302 195.815 154.096 196.844 153.685 197.667C153.273 198.489 152.656 199.106 151.833 199.518C150.394 199.723 149.571 199.929 148.542 199.929Z" fill="#5B3A29"/>
<path d="M165.203 186.766V199.724H162.94V186.766H165.203Z" fill="#5B3A29"/>
<path d="M174.459 199.723V186.765H182.687V188.616H176.722V192.524H182.07V194.375H176.722V199.518H174.459V199.723Z" fill="#5B3A29"/>
<path d="M190.71 188.823V186.972H200.995V188.823H197.087V199.725H194.824V188.823H190.71Z" fill="#5B3A29"/>
<path d="M225.266 199.93C223.826 199.93 222.592 199.518 221.769 198.901C220.946 198.284 220.329 197.256 220.329 196.022H222.592C222.592 196.639 223.003 197.256 223.415 197.461C223.826 197.873 224.649 197.873 225.266 197.873C226.089 197.873 226.706 197.667 227.117 197.461C227.528 197.05 227.94 196.639 227.94 196.022C227.94 195.61 227.734 195.199 227.323 194.787C226.911 194.376 226.294 194.376 225.677 194.17L224.237 193.759C223.209 193.553 222.386 193.142 221.769 192.525C221.152 191.908 220.946 191.291 220.946 190.262C220.946 189.439 221.152 188.822 221.563 188.205C221.975 187.588 222.592 187.177 223.209 186.971C223.826 186.56 224.649 186.56 225.677 186.56C226.5 186.56 227.323 186.765 228.146 186.971C228.763 187.382 229.38 187.794 229.791 188.205C230.202 188.822 230.408 189.439 230.408 190.056H228.146C228.146 189.439 227.94 189.028 227.323 188.822C226.706 188.617 226.294 188.411 225.677 188.411C224.854 188.411 224.443 188.617 224.032 188.822C223.62 189.234 223.415 189.645 223.415 190.056C223.415 190.468 223.62 190.673 223.826 190.879C224.032 191.085 224.237 191.291 224.649 191.496C225.06 191.702 225.266 191.702 225.677 191.908L226.911 192.319C227.528 192.525 228.146 192.73 228.763 192.936C229.38 193.142 229.791 193.553 230.203 194.17C230.614 194.582 230.82 195.199 230.82 196.022C230.82 196.844 230.614 197.461 230.203 198.079C229.791 198.696 229.174 199.107 228.557 199.518C227.117 199.724 226.294 199.93 225.266 199.93Z" fill="#5B3A29"/>
<path d="M238.842 199.724V186.766H241.104V192.114H247.07V186.766H249.332V199.724H247.07V194.171H241.104V199.724H238.842Z" fill="#5B3A29"/>
<path d="M264.143 199.93C263.114 199.93 262.086 199.724 261.057 199.107C260.029 198.49 259.412 197.873 259.001 196.845C258.383 195.816 258.178 194.582 258.178 193.348C258.178 191.908 258.383 190.674 259.001 189.851C259.618 188.823 260.235 188.205 261.057 187.588C261.88 186.971 262.909 186.766 264.143 186.766C265.171 186.766 266.2 186.971 267.228 187.588C268.051 188.205 268.874 188.823 269.285 189.851C269.697 190.88 270.108 192.114 270.108 193.348C270.108 194.582 269.902 196.022 269.285 196.845C268.668 197.873 268.051 198.49 267.228 199.107C266.406 199.724 265.171 199.93 264.143 199.93ZM264.143 197.873C265.171 197.873 265.994 197.462 266.817 196.639C267.434 195.816 267.845 194.788 267.845 193.348C267.845 191.908 267.434 190.674 266.817 190.057C266.2 189.234 265.377 188.823 264.143 188.823C263.114 188.823 262.292 189.234 261.469 190.057C260.852 190.88 260.44 191.908 260.44 193.348C260.44 194.788 260.852 196.022 261.469 196.639C262.086 197.462 262.909 197.873 264.143 197.873Z" fill="#5B3A29"/>
<path d="M278.953 199.724V186.766H283.684C284.713 186.766 285.535 186.971 286.152 187.383C286.77 187.794 287.387 188.205 287.592 188.823C288.004 189.44 288.209 190.262 288.209 191.085C288.209 191.908 288.004 192.731 287.592 193.348C287.181 193.965 286.77 194.582 285.947 194.788C285.33 195.199 284.507 195.405 283.478 195.405H281.01V199.724H278.953ZM281.216 193.554H283.478C284.301 193.554 284.918 193.348 285.33 192.936C285.741 192.525 285.947 191.908 285.947 191.291C285.947 190.674 285.741 190.057 285.33 189.645C284.918 189.234 284.301 189.028 283.478 189.028H281.421V193.554H281.216Z" fill="#5B3A29"/>
</g>
<defs>
<clipPath id="clip0_328_5456">
<rect width="406.232" height="199.985" fill="white" transform="translate(0.648438 0.0078125)"/>
</clipPath>
</defs>
</svg>
