<svg width="24" height="25" viewBox="0 0 24 25" fill="none" xmlns="http://www.w3.org/2000/svg">
<path d="M20.092 14.826L20.285 12.932C20.388 11.921 20.455 11.254 20.402 10.833H20.422C21.293 10.833 22 10.087 22 9.167C22 8.247 21.293 7.5 20.421 7.5C19.549 7.5 18.842 8.246 18.842 9.167C18.842 9.583 18.987 9.964 19.226 10.256C18.883 10.479 18.434 10.951 17.758 11.661C17.238 12.208 16.978 12.481 16.688 12.524C16.5269 12.547 16.3626 12.5227 16.215 12.454C15.947 12.33 15.768 11.992 15.411 11.315L13.527 7.75C13.307 7.333 13.122 6.984 12.955 6.703C13.638 6.335 14.105 5.586 14.105 4.723C14.105 3.494 13.163 2.5 12 2.5C10.837 2.5 9.895 3.495 9.895 4.722C9.895 5.586 10.362 6.335 11.045 6.702C10.878 6.984 10.694 7.333 10.473 7.75L8.59 11.316C8.232 11.992 8.053 12.33 7.785 12.455C7.63744 12.5237 7.47312 12.548 7.312 12.525C7.022 12.482 6.762 12.208 6.242 11.661C5.566 10.951 5.117 10.479 4.774 10.256C5.014 9.964 5.158 9.583 5.158 9.166C5.158 8.247 4.45 7.5 3.578 7.5C2.708 7.5 2 8.246 2 9.167C2 10.087 2.707 10.833 3.579 10.833H3.598C3.544 11.253 3.612 11.921 3.715 12.932L3.908 14.826C4.015 15.877 4.104 16.877 4.214 17.778H19.786C19.896 16.878 19.985 15.877 20.092 14.826ZM10.855 22.5H13.145C16.13 22.5 17.623 22.5 18.619 21.56C19.053 21.148 19.329 20.408 19.527 19.444H4.473C4.671 20.408 4.946 21.148 5.381 21.559C6.377 22.5 7.87 22.5 10.855 22.5Z" fill="#E4272B"/>
</svg>
